<svg id="Layer_1" data-name="Layer 1" xmlns="http://www.w3.org/2000/svg" viewBox="0 0 24 24"><defs><style>.cls-1{fill:none;stroke:#89a2f6;stroke-miterlimit:10;}.cls-2{fill:#44487d;}.cls-3{fill:#89a2f6;}.cls-4{fill:#3d5680;}</style></defs><title>icon_dev_24</title><line class="cls-1" x1="21.66" y1="2.34" x2="2.34" y2="21.66"/><line class="cls-1" x1="21.66" y1="21.66" x2="12" y2="12"/><polyline class="cls-2" points="14.66 3.75 19.06 8.16 15.23 12 19.06 15.84 14.66 20.25 10.84 16.41 6.44 12 10.84 7.59 14.66 3.75"/><path class="cls-3" d="M5.61,13.59l8.52,8.54a.75.75,0,0,0,1.07,0l5.74-5.76a.74.74,0,0,0,0-1.06l-2.77-2.78a.75.75,0,0,1,0-1.06l2.77-2.78a.74.74,0,0,0,0-1.06L15.2,1.87a.75.75,0,0,0-1.07,0L5.61,10.41A2.26,2.26,0,0,0,5.61,13.59Z"/><path class="cls-4" d="M18.54,7.63,15.2,4.28a.77.77,0,0,0-1.07,0l-3.3,3.31L7,11.47a.75.75,0,0,0,0,1.06l3.87,3.88,3.3,3.31a.77.77,0,0,0,1.07,0l3.34-3.35a.75.75,0,0,0,0-1.06L16,12.79a1.11,1.11,0,0,1,0-1.58l2.51-2.52A.75.75,0,0,0,18.54,7.63Z"/><circle class="cls-3" cx="21.5" cy="2.5" r="2.5"/><circle class="cls-3" cx="21.5" cy="21.5" r="2.5"/><circle class="cls-3" cx="2.5" cy="21.5" r="2.5"/><circle class="cls-3" cx="12" cy="12" r="1.75"/><path class="cls-3" d="M12,11a1,1,0,1,1-1,1,1,1,0,0,1,1-1m0-1.5A2.5,2.5,0,1,0,14.5,12,2.5,2.5,0,0,0,12,9.5Z"/></svg>